<?xml version="1.0" encoding="utf-8"?>
<!-- Generator: Adobe Illustrator 17.1.0, SVG Export Plug-In . SVG Version: 6.00 Build 0)  -->
<!DOCTYPE svg PUBLIC "-//W3C//DTD SVG 1.1//EN" "http://www.w3.org/Graphics/SVG/1.1/DTD/svg11.dtd">
<svg version="1.1" id="Layer_1" xmlns="http://www.w3.org/2000/svg" xmlns:xlink="http://www.w3.org/1999/xlink" x="0px" y="0px"
	 viewBox="0 0 100 97.7" enable-background="new 0 0 100 97.7" xml:space="preserve">
<path fill="#010101" d="M95.4,33.3l-13-10.6v-3.2c0-5.4-4.4-9.9-9.9-9.9h-6.2l-8.2-6.7c-2.2-1.8-5-2.9-8.1-2.9v0c0,0,0,0-0.1,0
	c0,0,0,0-0.1,0v0c-3,0-5.8,1.1-8.1,2.9l-8.3,6.7h-6.2c-5.4,0-9.9,4.4-9.9,9.9v3.1L3.8,33.7c-2.3,1.5-3.8,4-3.8,6.9v48.8
	c0,4.5,3.7,8.2,8.2,8.2h83.6c4.5,0,8.2-3.7,8.2-8.2V40.6C100,37.4,98.1,34.6,95.4,33.3z M93,86.1c0.6,1.5-0.1,3.3-1.6,3.9
	c-1.5,0.6-3.3-0.1-3.9-1.6L72.9,64H27.2L12.6,88.4c-0.6,1.5-2.4,2.2-3.9,1.6c-1.5-0.6-2.2-2.4-1.6-3.9L22,61.2L7.3,47
	c-1-1.3-0.8-3.2,0.5-4.2c1.3-1,3.2-0.8,4.2,0.5l11.2,10.7V18.9c0-1.9,1.5-3.4,3.4-3.4h46.9c1.9,0,3.4,1.5,3.4,3.4v35.2l11.3-10.8
	c1-1.3,2.9-1.5,4.2-0.5c1.3,1,1.5,2.9,0.5,4.2L78,61.2L93,86.1z"/>
<path fill="#D12222" d="M58.3,24.4c-3.6,0-7.6,3-8.3,6.6c-0.7-3.6-4.7-6.6-8.3-6.6c-6,0-9.6,4.6-9.6,10.6c0,3.8,2.4,7.1,5.4,9.3
	c6.1,4.4,7.6,5.2,12.5,10.2c4.9-4.9,6.4-5.7,12.5-10.2c3-2.1,5.4-5.5,5.4-9.3C67.9,28.9,64.3,24.4,58.3,24.4z"/>
</svg>
